<svg width="25" height="25" viewBox="0 0 25 25" fill="none" xmlns="http://www.w3.org/2000/svg">
<path d="M12.0021 24.0043C9.62835 24.0043 7.30786 23.3004 5.33411 21.9815C3.36037 20.6627 1.82203 18.7883 0.913614 16.5952C0.00520043 14.402 -0.232482 11.9888 0.230623 9.66063C0.693728 7.33244 1.83682 5.19387 3.51535 3.51534C5.19388 1.83681 7.33246 0.693713 9.66065 0.230608C11.9888 -0.232497 14.4021 0.00518517 16.5952 0.913599C18.7883 1.82201 20.6628 3.36036 21.9816 5.3341C23.3004 7.30784 24.0043 9.62833 24.0043 12.0021C24.0043 15.1853 22.7398 18.2381 20.4889 20.4889C18.2381 22.7398 15.1853 24.0043 12.0021 24.0043ZM12.0021 1.28593C9.88268 1.28593 7.81082 1.91443 6.04855 3.09194C4.28628 4.26945 2.91275 5.94309 2.10167 7.90122C1.29059 9.85935 1.07837 12.014 1.49186 14.0928C1.90534 16.1715 2.92596 18.0809 4.42465 19.5796C5.92334 21.0783 7.83278 22.0989 9.91152 22.5124C11.9903 22.9259 14.1449 22.7137 16.1031 21.9026C18.0612 21.0915 19.7348 19.718 20.9123 17.9557C22.0898 16.1935 22.7183 14.1216 22.7183 12.0021C22.7183 9.16002 21.5893 6.43431 19.5796 4.42464C17.57 2.41496 14.8443 1.28593 12.0021 1.28593Z" fill="#03C75A"/>
</svg>
